<?xml version="1.0" encoding="utf-8"?>
<svg version="1.1" xmlns:xlink="http://www.w3.org/1999/xlink" width="50px" height="30px" xmlns="http://www.w3.org/2000/svg">
  <g transform="matrix(1 0 0 1 -1241 -341 )">
    <path d="M 9.583333333333334 20.000000000000004  C 9.86111111111111 20.000000000000004  10 20.138888888888896  10 20.416666666666668  L 10 22.916666666666664  C 10 23.19444444444444  9.86111111111111 23.333333333333332  9.583333333333334 23.333333333333332  L 7.083333333333333 23.333333333333332  C 6.805555555555556 23.333333333333332  6.666666666666667 23.19444444444444  6.666666666666667 22.916666666666664  L 6.666666666666667 20.416666666666668  C 6.666666666666667 20.138888888888896  6.805555555555556 20.000000000000004  7.083333333333333 20.000000000000004  L 9.583333333333334 20.000000000000004  Z M 12.916666666666668 13.333333333333332  C 13.194444444444445 13.333333333333332  13.333333333333334 13.472222222222218  13.333333333333334 13.750000000000002  L 13.333333333333334 16.250000000000004  C 13.333333333333334 16.527777777777775  13.194444444444445 16.666666666666668  12.916666666666668 16.666666666666668  L 7.083333333333333 16.666666666666668  C 6.805555555555556 16.666666666666668  6.666666666666667 16.527777777777775  6.666666666666667 16.250000000000004  L 6.666666666666667 13.750000000000002  C 6.666666666666667 13.472222222222218  6.805555555555556 13.333333333333332  7.083333333333333 13.333333333333332  L 12.916666666666668 13.333333333333332  Z M 9.583333333333334 6.666666666666666  C 9.86111111111111 6.666666666666666  10 6.805555555555553  10 7.083333333333335  L 10 9.583333333333332  C 10 9.86111111111111  9.86111111111111 10.000000000000002  9.583333333333334 10.000000000000002  L 7.083333333333333 10.000000000000002  C 6.805555555555556 10.000000000000002  6.666666666666667 9.86111111111111  6.666666666666667 9.583333333333332  L 6.666666666666667 7.083333333333335  C 6.666666666666667 6.805555555555553  6.805555555555556 6.666666666666666  7.083333333333333 6.666666666666666  L 9.583333333333334 6.666666666666666  Z M 36.25 20  C 36.52777777777778 20.000000000000004  36.666666666666664 20.138888888888896  36.666666666666664 20.416666666666668  L 36.666666666666664 22.916666666666664  C 36.666666666666664 23.19444444444444  36.52777777777778 23.333333333333332  36.25 23  L 13.750000000000002 23  C 13.472222222222225 23.333333333333332  13.333333333333334 23.19444444444444  13.333333333333334 22.916666666666664  L 13.333333333333334 20.416666666666668  C 13.333333333333334 20.138888888888896  13.472222222222225 20.000000000000004  13.750000000000002 20  L 36.25 20  Z M 19.583333333333332 13.333333333333332  C 19.86111111111111 13.333333333333332  20 13.472222222222218  20 13.750000000000002  L 20 16.250000000000004  C 20 16.527777777777775  19.86111111111111 16.666666666666668  19.583333333333332 16.666666666666668  L 17.083333333333332 16.666666666666668  C 16.805555555555557 16.666666666666668  16.666666666666664 16.527777777777775  16.666666666666664 16.250000000000004  L 16.666666666666664 13.750000000000002  C 16.666666666666664 13.472222222222218  16.805555555555557 13.333333333333332  17.083333333333332 13.333333333333332  L 19.583333333333332 13.333333333333332  Z M 16.25 6.666666666666666  C 16.52777777777778 6.666666666666666  16.666666666666664 6.805555555555553  16.666666666666664 7.083333333333335  L 16.666666666666664 9.583333333333332  C 16.666666666666664 9.86111111111111  16.52777777777778 10.000000000000002  16.25 10.000000000000002  L 13.750000000000002 10.000000000000002  C 13.472222222222225 10.000000000000002  13.333333333333334 9.86111111111111  13.333333333333334 9.583333333333332  L 13.333333333333334 7.083333333333335  C 13.333333333333334 6.805555555555553  13.472222222222225 6.666666666666666  13.750000000000002 6.666666666666666  L 16.25 6.666666666666666  Z M 26.25 13.333333333333332  C 26.52777777777778 13.333333333333332  26.666666666666668 13.472222222222218  26.666666666666668 13.750000000000002  L 26.666666666666668 16.250000000000004  C 26.666666666666668 16.527777777777775  26.52777777777778 16.666666666666668  26.25 16.666666666666668  L 23.75 16.666666666666668  C 23.47222222222222 16.666666666666668  23.333333333333332 16.527777777777775  23.333333333333332 16.250000000000004  L 23.333333333333332 13.750000000000002  C 23.333333333333332 13.472222222222218  23.47222222222222 13.333333333333332  23.75 13.333333333333332  L 26.25 13.333333333333332  Z M 22.916666666666664 6.666666666666666  C 23.194444444444446 6.666666666666666  23.333333333333332 6.805555555555553  23.333333333333332 7.083333333333335  L 23.333333333333332 9.583333333333332  C 23.333333333333332 9.86111111111111  23.194444444444446 10.000000000000002  22.916666666666664 10.000000000000002  L 20.416666666666668 10.000000000000002  C 20.138888888888886 10.000000000000002  20 9.86111111111111  20 9.583333333333332  L 20 7.083333333333335  C 20 6.805555555555553  20.138888888888886 6.666666666666666  20.416666666666668 6.666666666666666  L 22.916666666666664 6.666666666666666  Z M 32.916666666666664 13.333333333333332  C 33.19444444444445 13.333333333333332  33.33333333333333 13.472222222222218  33.33333333333333 13.750000000000002  L 33.33333333333333 16.250000000000004  C 33.33333333333333 16.527777777777775  33.19444444444445 16.666666666666668  32.916666666666664 16.666666666666668  L 30.416666666666664 16.666666666666668  C 30.138888888888893 16.666666666666668  30 16.527777777777775  30 16.250000000000004  L 30 13.750000000000002  C 30 13.472222222222218  30.138888888888893 13.333333333333332  30.416666666666664 13.333333333333332  L 32.916666666666664 13.333333333333332  Z M 42.916666666666664 20.000000000000004  C 43.19444444444444 20.000000000000004  43.333333333333336 20.138888888888896  43.333333333333336 20.416666666666668  L 43.333333333333336 22.916666666666664  C 43.333333333333336 23.19444444444444  43.19444444444444 23.333333333333332  42.916666666666664 23.333333333333332  L 40.416666666666664 23.333333333333332  C 40.138888888888886 23.333333333333332  40 23.19444444444444  40 22.916666666666664  L 40 20.416666666666668  C 40 20.138888888888896  40.138888888888886 20.000000000000004  40.416666666666664 20.000000000000004  L 42.916666666666664 20.000000000000004  Z M 29.583333333333332 6.666666666666666  C 29.86111111111111 6.666666666666666  30 6.805555555555553  30 7.083333333333335  L 30 9.583333333333332  C 30 9.86111111111111  29.86111111111111 10.000000000000002  29.583333333333332 10.000000000000002  L 27.083333333333332 10.000000000000002  C 26.80555555555556 10.000000000000002  26.666666666666668 9.86111111111111  26.666666666666668 9.583333333333332  L 26.666666666666668 7.083333333333335  C 26.666666666666668 6.805555555555553  26.80555555555556 6.666666666666666  27.083333333333332 6.666666666666666  L 29.583333333333332 6.666666666666666  Z M 36.25 6.666666666666666  C 36.52777777777778 6.666666666666666  36.666666666666664 6.805555555555553  36.666666666666664 7.083333333333335  L 36.666666666666664 9.583333333333332  C 36.666666666666664 9.86111111111111  36.52777777777778 10.000000000000002  36.25 10.000000000000002  L 33.75 10.000000000000002  C 33.47222222222223 10.000000000000002  33.33333333333333 9.86111111111111  33.33333333333333 9.583333333333332  L 33.33333333333333 7.083333333333335  C 33.33333333333333 6.805555555555553  33.47222222222223 6.666666666666666  33.75 6.666666666666666  L 36.25 6.666666666666666  Z M 42.916666666666664 6.666666666666666  C 43.19444444444444 6.666666666666666  43.333333333333336 6.805555555555553  43.333333333333336 7.083333333333335  L 43.333333333333336 16.250000000000004  C 43.333333333333336 16.527777777777775  43.19444444444444 16.666666666666668  42.916666666666664 16.666666666666668  L 37.083333333333336 16.666666666666668  C 36.80555555555556 16.666666666666668  36.666666666666664 16.527777777777775  36.666666666666664 16.250000000000004  L 36.666666666666664 13.750000000000002  C 36.666666666666664 13.472222222222218  36.80555555555556 13.333333333333332  37.083333333333336 13.333333333333332  L 40 13.333333333333332  L 40 7.083333333333335  C 40 6.805555555555553  40.138888888888886 6.666666666666666  40.416666666666664 6.666666666666666  L 42.916666666666664 6.666666666666666  Z M 4 26.666666666666664  L 46 26.666666666666664  L 46 3.333333333333335  L 4 3.333333333333335  L 4 26.666666666666664  Z M 49.0234375 0.9765625000000011  C 49.67447916666667 1.6276041666666663  50.000000000000014 2.4131944444444398  50 3.333333333333335  L 50 26.666666666666664  C 50.000000000000014 27.586805555555554  49.67447916666667 28.372395833333332  49.0234375 29.0234375  C 48.372395833333336 29.674479166666668  47.586805555555564 30  46.666666666666664 30  L 3.3333333333333335 30  C 2.4131944444444446 30  1.6276041666666667 29.674479166666668  0.9765625 29.0234375  C 0.32552083333333337 28.372395833333332  0 27.586805555555554  0 26.666666666666664  L 0 3.333333333333335  C 0 2.4131944444444398  0.32552083333333337 1.6276041666666663  0.9765625 0.9765625000000011  C 1.6276041666666667 0.3255208333333326  2.4131944444444446 0  3.3333333333333335 0  L 46.666666666666664 0  C 47.586805555555564 0  48.372395833333336 0.3255208333333326  49.0234375 0.9765625000000011  Z " fill-rule="nonzero" fill="#333333" stroke="none" transform="matrix(1 0 0 1 1241 341 )" />
  </g>
</svg>