<?xml version="1.0" encoding="utf-8"?>
<svg version="1.1" xmlns:xlink="http://www.w3.org/1999/xlink" width="60px" height="60px" xmlns="http://www.w3.org/2000/svg">
  <g transform="matrix(1 0 0 1 -23 -331 )">
    <path d="M 57.6171875 18.359375000000004  C 59.20572916666666 22.057291666666668  60 25.937499999999996  60 30  C 60 34.06249999999999  59.20572916666666 37.94270833333333  57.6171875 41.64062500000001  C 56.028645833333336 45.33854166666667  53.89322916666667 48.52864583333333  51.2109375 51.2109375  C 48.528645833333336 53.89322916666667  45.33854166666667 56.02864583333333  41.640625 57.6171875  C 37.94270833333334 59.205729166666664  34.0625 60  30 60  C 25.520833333333336 60  21.263020833333336 59.05598958333333  17.2265625 57.16796875  C 13.190104166666666 55.279947916666664  9.752604166666668 52.6171875  6.9140625 49.1796875  C 6.731770833333334 48.91927083333333  6.647135416666668 48.62630208333333  6.66015625 48.30078125  C 6.673177083333334 47.97526041666667  6.783854166666667 47.70833333333333  6.9921875 47.5  L 12.34375 42.10937500000001  C 12.604166666666666 41.87500000000001  12.9296875 41.75781250000001  13.3203125 41.75781250000001  C 13.736979166666668 41.80989583333333  14.036458333333334 41.96614583333333  14.21875 42.22656250000001  C 16.119791666666668 44.700520833333336  18.450520833333336 46.614583333333336  21.2109375 47.96875  C 23.971354166666668 49.32291666666667  26.901041666666668 50  30 50  C 32.708333333333336 50  35.29296875 49.47265625  37.75390625 48.41796875  C 40.21484375 47.36328125  42.34375 45.9375  44.140625 44.14062499999999  C 45.9375 42.34375000000001  47.36328125 40.21484374999999  48.41796875 37.75390624999999  C 49.47265625 35.29296874999999  50 32.70833333333333  50 30  C 50 27.291666666666664  49.47265625 24.707031249999996  48.41796875 22.246093749999996  C 47.36328125 19.785156249999996  45.9375 17.656250000000004  44.140625 15.859374999999998  C 42.34375 14.0625  40.21484375 12.636718749999998  37.75390625 11.582031249999998  C 35.29296875 10.527343749999998  32.708333333333336 9.999999999999998  30 9.999999999999998  C 27.44791666666667 9.999999999999998  25 10.462239583333332  22.65625 11.386718750000002  C 20.3125 12.311197916666659  18.229166666666668 13.632812499999998  16.40625 15.3515625  L 21.7578125 20.7421875  C 22.565104166666668 21.523437500000004  22.747395833333332 22.421874999999996  22.3046875 23.4375  C 21.861979166666668 24.47916666666667  21.09375 24.999999999999996  20 25  L 2.5 25  C 1.822916666666667 24.999999999999996  1.2369791666666667 24.752604166666668  0.7421875 24.2578125  C 0.24739583333333334 23.763020833333332  0 23.177083333333332  0 22.5  L 0 5.000000000000002  C 0 3.906249999999998  0.5208333333333333 3.1380208333333326  1.5625 2.6953125  C 2.578125 2.2526041666666607  3.4765625 2.4348958333333326  4.2578125 3.242187500000002  L 9.3359375 8.281250000000002  C 12.122395833333336 5.651041666666661  15.305989583333334 3.613281249999998  18.88671875 2.16796875  C 22.46744791666667 0.7226562500000022  26.171875 0  30 0  C 34.0625 0  37.94270833333334 0.7942708333333326  41.640625 2.382812499999998  C 45.33854166666667 3.971354166666663  48.528645833333336 6.10677083333333  51.2109375 8.7890625  C 53.89322916666667 11.471354166666663  56.028645833333336 14.66145833333333  57.6171875 18.359375000000004  Z M 34.6484375 17.851562499999996  C 34.8828125 18.085937499999996  35 18.385416666666664  35 18.75  L 35 36.25000000000001  C 35 36.614583333333336  34.8828125 36.9140625  34.6484375 37.1484375  C 34.4140625 37.3828125  34.114583333333336 37.5  33.75 37  L 21.25 37  C 20.88541666666667 37.5  20.5859375 37.3828125  20.3515625 37.1484375  C 20.1171875 36.9140625  20 36.614583333333336  20 36.25000000000001  L 20 33.75  C 20 33.38541666666667  20.1171875 33.08593750000001  20.3515625 32.85156250000001  C 20.5859375 32.61718750000001  20.88541666666667 32.50000000000001  21.25 32.50000000000001  L 30 32.50000000000001  L 30 18.75  C 30 18.385416666666664  30.1171875 18.085937499999996  30.3515625 17.851562499999996  C 30.585937500000007 17.617187499999996  30.88541666666667 17.499999999999996  31.250000000000004 17.499999999999996  L 33.75 17.499999999999996  C 34.114583333333336 17.499999999999996  34.4140625 17.617187499999996  34.6484375 17.851562499999996  Z " fill-rule="nonzero" fill="#333333" stroke="none" transform="matrix(1 0 0 1 23 331 )" />
  </g>
</svg>