<?xml version="1.0" encoding="utf-8"?>
<svg version="1.1" xmlns:xlink="http://www.w3.org/1999/xlink" width="196px" height="56px" xmlns="http://www.w3.org/2000/svg">
  <defs>
    <mask fill="white" id="clip6">
      <path d="M 0 49  L 0 7  C 0 3.0800000000000636  3.0800000000000636 0  7 0  L 122.4363636363648 0  L 189 0  C 192.91999999999993 0  196 3.0800000000000636  196 7  L 196 49  C 196 52.91999999999994  192.91999999999993 56  189 56  L 7 56  C 3.0800000000000636 56  0 52.91999999999994  0 49  Z " fill-rule="evenodd" />
    </mask>
  </defs>
  <g transform="matrix(1 0 0 1 -755 -671 )">
    <path d="M 0 49  L 0 7  C 0 3.0800000000000636  3.0800000000000636 0  7 0  L 122.4363636363648 0  L 189 0  C 192.91999999999993 0  196 3.0800000000000636  196 7  L 196 49  C 196 52.91999999999994  192.91999999999993 56  189 56  L 7 56  C 3.0800000000000636 56  0 52.91999999999994  0 49  Z " fill-rule="nonzero" fill="#ffffff" stroke="none" transform="matrix(1 0 0 1 755 671 )" />
    <path d="M 0 49  L 0 7  C 0 3.0800000000000636  3.0800000000000636 0  7 0  L 122.4363636363648 0  L 189 0  C 192.91999999999993 0  196 3.0800000000000636  196 7  L 196 49  C 196 52.91999999999994  192.91999999999993 56  189 56  L 7 56  C 3.0800000000000636 56  0 52.91999999999994  0 49  Z " stroke-width="2" stroke="#797979" fill="none" transform="matrix(1 0 0 1 755 671 )" mask="url(#clip6)" />
  </g>
</svg>